<?xml version="1.0" encoding="UTF-8"?>
<svg width="900" height="600" viewBox="0 0 900 600" fill="none" xmlns="http://www.w3.org/2000/svg">
  <path fill="transparent" d="M0 0h900v600H0z"/>
  <circle cx="450" cy="300" r="200" fill="#E6E8EC"/>
  <path d="M450 180c-33.137 0-60 26.863-60 60s26.863 60 60 60 60-26.863 60-60-26.863-60-60-60zm0 90c-16.569 0-30-13.431-30-30s13.431-30 30-30 30 13.431 30 30-13.431 30-30 30z" fill="#A3A3A3"/>
  <path d="M450 330c-49.706 0-90 40.294-90 90 0 16.569 13.431 30 30 30h120c16.569 0 30-13.431 30-30 0-49.706-40.294-90-90-90zm-60 90c0-33.137 26.863-60 60-60s60 26.863 60 60H390z" fill="#A3A3A3"/>
</svg>
